<svg width="44" height="45" viewBox="0 0 44 45" fill="none" xmlns="http://www.w3.org/2000/svg">
<circle cx="22" cy="22.5098" r="21" stroke="white" stroke-width="2"/>
<path fill-rule="evenodd" clip-rule="evenodd" d="M17.5196 16.3229C17.4911 16.7111 17.4864 19.454 17.5149 19.5008C17.5362 19.5358 18.8179 19.5516 18.9398 19.5183C18.9936 19.504 18.9975 19.3825 18.9975 17.5717V15.6409L19.0948 15.3313C19.1486 15.1614 19.2831 14.7152 19.3947 14.3397C19.4792 14.0548 19.5772 13.7276 19.6425 13.5097C19.6635 13.4397 19.6811 13.3811 19.6938 13.3386C20.1772 11.758 20.6392 10.202 20.6511 10.1138L20.6661 10.0051L19.9897 10.0011C19.3781 9.99793 19.1914 10.0011 19.1748 10.017C19.1668 10.0241 18.9556 10.8283 18.5798 12.2859C18.4002 12.9806 18.2491 13.5355 18.2443 13.5196C18.2401 13.5063 18.1135 13.0386 17.9387 12.3927C17.8851 12.1947 17.827 11.9799 17.7665 11.7564C17.5093 10.8029 17.2941 10.0186 17.2878 10.0122C17.2783 10.0027 16.4595 9.99872 15.7957 10.0043C15.7804 10.0044 15.7662 9.99981 15.7572 10.0047C15.7089 10.0307 15.8055 10.3254 16.6533 13.0314C16.7925 13.476 17.0014 14.1063 17.1169 14.431C17.4729 15.4329 17.5568 15.8251 17.5196 16.3229ZM15.9421 23.9659L15.9255 28.0172L15.9089 32.0684L15.2514 32.0772C14.7443 32.0843 14.5908 32.0764 14.5789 32.0438C14.5702 32.0208 14.5592 30.1932 14.5552 27.9838L14.5465 23.9659L13.8076 23.958L13.0686 23.9485V23.3158V22.6822L15.2522 22.691L17.4374 22.6997L17.4469 23.3245L17.4556 23.9485L16.6993 23.958L15.9421 23.9659ZM28.5826 26.5794C28.5415 26.7152 28.4988 27.6512 28.5296 27.7322C28.5462 27.7766 28.6396 27.7838 29.2005 27.7838H29.8532L29.8422 27.1923C29.8311 26.6493 29.824 26.5866 29.752 26.4397C29.638 26.2079 29.4687 26.1047 29.2021 26.1047C28.8817 26.1047 28.6784 26.2603 28.5826 26.5794ZM30.9965 30.8601C30.8295 31.4786 30.3873 31.9168 29.748 32.097C28.8856 32.3383 27.937 31.9414 27.5581 31.1816C27.346 30.7545 27.3389 30.6696 27.3389 28.584C27.3389 26.8835 27.3452 26.6755 27.399 26.4437C27.5517 25.7863 27.9323 25.3616 28.5763 25.1258C29.43 24.8138 30.4577 25.2084 30.8288 25.9904C31.0234 26.4032 31.0471 26.5794 31.0677 27.7417L31.0843 28.7833L29.8097 28.7928L28.5352 28.8008L28.5257 29.501C28.5122 30.4886 28.5779 30.7926 28.8437 30.9728C29.0668 31.1237 29.4102 31.1118 29.5969 30.9474C29.7725 30.7926 29.8224 30.6267 29.8398 30.1432L29.8548 29.7177H30.4711H31.0867L31.0677 30.1924C31.0566 30.4536 31.0242 30.7545 30.9965 30.8601ZM24.8713 30.6672C24.8309 30.7823 24.7795 30.8561 24.7012 30.9093C24.5018 31.0427 24.213 31.0006 23.9495 30.799L23.8332 30.7101V28.584V26.458L23.9503 26.3691C24.3064 26.096 24.6948 26.1261 24.8491 26.4381C24.9092 26.5604 24.9132 26.6699 24.9203 28.534C24.9274 30.3226 24.9227 30.5156 24.8713 30.6672ZM26.0058 31.5865C25.9006 31.8223 25.6664 32.0533 25.4725 32.1097C24.9709 32.259 24.5682 32.1383 24.103 31.6993C23.9582 31.5627 23.8237 31.4516 23.804 31.4516C23.7794 31.4516 23.7668 31.5579 23.7668 31.7683V32.0851H23.1687H22.5705V27.3837V22.683H23.1687H23.7668V24.2168C23.7668 25.0599 23.7787 25.7506 23.7913 25.7506C23.8056 25.7506 23.9313 25.6387 24.0722 25.5029C24.3958 25.1893 24.6656 25.0528 25.0081 25.0258C25.6205 24.9797 25.9844 25.2949 26.1514 26.0166C26.2028 26.242 26.2091 26.4993 26.2091 28.584C26.2091 31.1237 26.2083 31.1348 26.0058 31.5865ZM19.8624 31.5532C19.6258 31.7945 19.3449 31.9898 19.106 32.0787C18.6107 32.2653 18.1408 32.1565 17.9398 31.8104C17.7563 31.4936 17.7531 31.4222 17.7531 28.1347V25.1171H18.3497H18.9478L18.9565 27.9592C18.966 30.7514 18.9676 30.8037 19.034 30.9165C19.1218 31.0681 19.2579 31.1094 19.4715 31.0499C19.5981 31.0149 19.6836 30.953 19.8877 30.749L20.1456 30.4925V27.8044V25.1171H20.7437H21.3419V28.6007V32.0851H20.7437H20.1456V31.7183C20.1456 31.442 20.1345 31.3515 20.1029 31.3515C20.0791 31.3515 19.9708 31.442 19.8624 31.5532ZM17.5704 34.9383C17.9177 34.951 18.837 34.9725 19.6139 34.986C21.2327 35.0146 24.209 34.9979 25.9101 34.9502C27.0549 34.9177 29.142 34.8335 29.5312 34.8034C29.6412 34.7946 29.8952 34.7788 30.0961 34.7669C30.7726 34.7288 31.2022 34.5866 31.6049 34.2683C32.1279 33.8563 32.5313 33.0957 32.7022 32.2034C32.8644 31.3595 32.9728 29.8558 32.9942 28.149C33.0132 26.7223 32.9879 25.9523 32.8858 24.717C32.7553 23.1562 32.6532 22.6497 32.332 21.9995C31.9071 21.1381 31.2932 20.684 30.4189 20.584C29.7433 20.507 27.2005 20.3974 24.8467 20.345C20.7722 20.2545 14.0742 20.4292 13.2181 20.6491C12.8233 20.7507 12.5267 20.9222 12.2181 21.231C11.6777 21.7708 11.3557 22.5449 11.226 23.6166C10.9309 26.0618 10.9245 29.0175 11.2086 31.5516C11.3312 32.6416 11.5844 33.3498 12.0575 33.9333C12.3534 34.2977 12.8629 34.6073 13.3186 34.6994C13.6382 34.7645 15.2388 34.8542 17.5704 34.9383ZM26.2573 19.6167C25.9234 19.5723 25.728 19.4429 25.5943 19.1769C25.4266 18.8435 25.4266 18.8451 25.4266 15.5226V12.4225H26.1006H26.7739L26.7882 15.2805C26.8032 18.3846 26.7992 18.3124 26.9844 18.3592C27.1545 18.4013 27.3428 18.31 27.577 18.0702L27.8017 17.8408L27.8104 15.1312L27.8183 12.4225L28.4916 12.413L29.1648 12.405V15.9529V19.5016L29.0731 19.5207C28.9631 19.5437 27.9425 19.5421 27.8602 19.5183C27.8104 19.5048 27.8024 19.4588 27.8024 19.1809V18.8586L27.611 19.0459C27.1711 19.4754 26.6964 19.6755 26.2573 19.6167V19.6167ZM22.8648 18.2616C23.0958 18.0853 23.0974 18.0702 23.1092 16.0752C23.1195 14.5247 23.114 14.2611 23.0673 14.05C23.004 13.7642 22.8932 13.6292 22.6765 13.5697C22.3964 13.495 22.1401 13.6554 22.0499 13.9626C21.9818 14.1992 21.9826 17.7162 22.0514 17.9527C22.1037 18.1306 22.2706 18.3251 22.394 18.3521C22.5546 18.3862 22.7516 18.3481 22.8656 18.2616H22.8648ZM22.3371 19.6151C21.7342 19.5421 21.1804 19.1864 20.9137 18.7006C20.6424 18.206 20.6171 17.9472 20.6329 15.7687C20.6455 14.0817 20.6503 13.9761 20.7167 13.734C20.8758 13.1584 21.1835 12.7662 21.6606 12.5289C22.3157 12.2042 23.0222 12.2462 23.6401 12.6479C24.0341 12.9028 24.273 13.2727 24.4012 13.8229C24.4574 14.0658 24.4629 14.2524 24.4629 15.9561C24.4629 18.0282 24.4534 18.148 24.2414 18.5966C24.0381 19.0293 23.5776 19.4103 23.0974 19.5445C22.8853 19.6024 22.5174 19.6374 22.3371 19.6151V19.6151Z" fill="white"/>
</svg>
